<svg xmlns="http://www.w3.org/2000/svg" width="500" height="500" viewBox="0 0 500 500">
<g>
<path d="M 94.89 370.04 C87.61,372.50 72.60,373.46 64.40,371.98 C49.55,369.30 40.02,360.71 38.35,348.50 L 37.73 344.00 L 57.84 344.00 L 58.49 346.95 C60.12,354.39 66.14,358.00 76.90,358.00 C88.04,358.00 93.00,354.89 93.00,347.90 C93.00,340.97 88.70,338.94 65.54,334.91 C55.53,333.16 47.28,328.61 43.25,322.62 C40.28,318.20 40.00,317.11 40.02,310.14 C40.04,300.99 42.21,296.35 48.82,291.31 C55.15,286.48 62.56,284.58 75.00,284.60 C87.22,284.62 95.08,286.66 101.42,291.48 C105.78,294.79 110.94,303.04 110.98,306.75 C111.01,310.21 112.24,309.46 115.23,304.13 C121.10,293.69 131.05,287.00 143.88,284.88 C156.29,282.83 170.82,286.52 179.14,293.82 C183.04,297.24 189.00,307.56 189.00,310.89 C189.00,312.05 189.45,313.00 190.00,313.00 C190.55,313.00 191.00,313.92 191.00,315.03 C191.00,316.97 190.49,317.05 180.33,316.78 L 169.66 316.50 L 168.71 313.50 C167.57,309.92 163.54,305.37 159.80,303.41 C156.32,301.59 145.69,301.59 142.20,303.40 C134.67,307.32 131.05,315.14 131.03,327.50 C131.01,337.62 132.00,342.19 135.27,347.12 C139.74,353.85 151.29,356.99 159.30,353.65 C163.43,351.92 168.61,346.04 169.48,342.07 L 170.16 339.00 L 191.00 339.00 L 191.00 342.50 C191.00,344.42 190.60,346.00 190.11,346.00 C189.62,346.00 188.92,347.24 188.55,348.75 C185.91,359.58 172.25,369.98 157.99,372.00 C140.22,374.52 126.31,368.50 115.27,353.50 C113.46,351.04 113.06,350.85 113.03,352.41 C112.98,355.41 108.44,362.43 104.69,365.28 C102.82,366.71 98.41,368.85 94.89,370.04 ZM 415.00 250.08 L 415.00 269.00 L 395.00 269.00 L 395.00 151.93 L 414.50 152.50 L 414.80 157.82 L 415.11 163.13 L 418.30 159.98 C434.49,144.02 463.31,149.02 473.80,169.61 C477.50,176.88 479.00,183.99 479.00,194.29 C479.00,215.72 471.71,229.25 456.42,236.20 C452.43,238.01 449.70,238.44 442.00,238.43 C431.38,238.43 426.16,236.71 419.76,231.09 C416.82,228.51 416.12,228.25 415.61,229.57 C415.27,230.45 415.00,239.68 415.00,250.08 ZM 356.41 235.67 C351.78,237.79 340.94,239.54 338.50,238.56 C337.95,238.34 335.88,237.89 333.89,237.56 C329.03,236.75 321.80,231.81 318.79,227.24 C314.72,221.03 314.00,215.73 314.00,191.72 C314.00,179.41 313.81,169.15 313.59,168.92 C313.36,168.69 309.27,168.65 304.50,168.83 L 295.82 169.15 L 296.16 193.04 C296.42,211.40 296.37,217.35 299.18,219.45 C300.66,220.55 302.94,220.59 306.49,220.82 L 313.00 221.23 L 313.00 237.21 L 301.25 236.84 C290.99,236.52 288.94,236.16 285.05,233.99 C276.76,229.35 276.54,228.44 276.19,196.75 L 275.88 169.00 L 272.64 169.00 C270.86,169.00 268.79,169.56 268.05,170.25 C267.24,171.00 266.96,171.04 267.35,170.36 C267.72,169.69 266.99,168.96 265.58,168.61 C262.82,167.92 261.69,163.59 262.20,155.67 L 262.50 150.93 L 276.00 152.26 L 276.00 128.00 L 296.00 128.00 L 296.02 138.75 C296.02,144.66 296.37,150.03 296.78,150.68 C297.28,151.46 303.59,152.09 315.76,152.57 L 334.00 153.29 L 334.00 179.70 C334.00,208.92 334.64,213.68 339.09,217.42 C344.82,222.25 355.74,221.92 361.63,216.75 C368.39,210.82 368.47,210.44 368.82,180.22 L 369.14 152.93 L 379.32 153.22 L 389.50 153.50 L 389.50 236.50 L 370.00 237.07 L 370.00 232.20 C370.00,229.52 369.77,227.10 369.48,226.82 C369.20,226.53 367.28,227.88 365.23,229.82 C363.18,231.75 359.21,234.39 356.41,235.67 ZM 446.01 416.90 C439.62,418.28 373.92,418.23 369.12,416.85 C361.05,414.53 356.86,409.01 356.79,400.58 C356.73,393.83 359.60,388.76 365.06,385.97 C368.71,384.11 371.10,384.00 408.01,384.00 L 409.62 384.00 C442.37,384.00 448.47,384.00 452.35,386.93 C453.30,387.65 454.11,388.55 455.16,389.66 C463.95,399.06 458.89,414.14 446.01,416.90 ZM 431.50 221.12 C436.18,222.33 442.93,221.23 447.59,218.50 C450.78,216.63 452.57,214.55 454.68,210.25 C457.23,205.05 457.50,203.50 457.50,194.00 C457.50,184.94 457.17,182.83 455.11,178.64 C451.62,171.55 445.66,168.00 437.26,168.00 C423.50,168.00 416.37,175.78 415.26,192.03 C414.22,207.25 420.35,218.24 431.50,221.12 ZM 106.00 329.23 L 108.50 331.18 L 109.12 327.34 C109.46,325.23 110.04,321.14 110.41,318.25 L 111.07 313.00 L 102.00 313.00 C94.24,313.00 92.86,312.75 92.40,311.25 C89.52,301.95 85.95,299.55 75.00,299.52 C65.13,299.49 60.65,301.84 60.19,307.26 C60.02,309.27 60.40,311.88 61.03,313.05 C62.47,315.75 69.00,318.64 75.50,319.47 C90.16,321.34 99.89,324.45 106.00,329.23 ZM 414.53 410.04 C415.41,411.47 421.24,410.83 421.76,409.25 C422.02,408.45 421.14,407.99 419.33,407.97 C417.07,407.95 416.83,407.75 418.12,406.99 C419.01,406.47 420.28,404.73 420.95,403.13 C423.81,396.22 415.30,390.16 409.16,394.72 C404.33,398.31 405.04,405.28 410.47,407.55 C412.34,408.33 414.16,409.45 414.53,410.04 ZM 367.00 400.00 L 367.00 408.00 L 371.17 408.00 C375.94,408.00 379.00,405.82 379.00,402.42 C379.00,399.29 376.43,397.00 372.93,397.00 C370.47,397.00 370.00,396.60 370.00,394.50 C370.00,392.94 369.43,392.00 368.50,392.00 C367.29,392.00 367.00,393.56 367.00,400.00 ZM 438.70 406.22 C439.80,407.44 441.44,407.99 443.37,407.80 C447.27,407.41 447.92,405.27 444.31,404.72 C441.65,404.32 441.67,404.29 444.78,404.15 C448.75,403.97 449.93,401.69 447.47,398.96 C445.30,396.57 441.29,396.42 438.83,398.65 C436.54,400.73 436.49,403.78 438.70,406.22 ZM 380.00 410.57 C380.00,411.69 380.79,412.04 382.75,411.82 C384.90,411.57 386.08,410.40 388.14,406.50 C389.59,403.75 391.08,400.49 391.46,399.25 C392.56,395.59 389.22,396.47 387.67,400.25 L 386.33 403.50 L 384.64 400.25 C383.71,398.46 382.51,397.00 381.97,397.00 C380.57,397.00 380.84,400.10 382.50,403.00 C384.57,406.62 384.37,409.00 382.00,409.00 C380.85,409.00 380.00,409.67 380.00,410.57 ZM 425.16 406.76 C425.80,407.40 428.27,407.88 430.66,407.83 L 435.00 407.75 L 435.00 402.37 C435.00,398.36 434.63,397.00 433.56,397.00 C432.62,397.00 432.01,398.30 431.81,400.75 C431.56,403.73 431.09,404.50 429.50,404.50 C427.91,404.50 427.44,403.73 427.19,400.75 C426.99,398.30 426.38,397.00 425.44,397.00 C423.65,397.00 423.42,405.02 425.16,406.76 ZM 416.80 403.80 C415.00,405.60 411.20,405.24 410.09,403.16 C407.77,398.84 412.86,393.98 416.51,397.01 C418.30,398.50 418.46,402.14 416.80,403.80 ZM 400.00 400.50 C400.00,406.23 400.33,408.00 401.39,408.00 C403.07,408.00 403.89,403.22 403.23,397.31 C402.92,394.56 402.24,393.00 401.37,393.00 C400.33,393.00 400.00,394.82 400.00,400.50 ZM 375.50 402.50 C375.50,403.79 374.73,404.61 373.34,404.81 C370.82,405.17 369.73,403.86 370.62,401.54 C371.53,399.18 375.50,399.97 375.50,402.50 Z" fill="rgb(111,177,102)"/>
<path d="M 327.00 369.72 C305.74,377.50 281.79,368.38 272.59,349.00 C269.58,342.66 269.50,342.13 269.50,328.00 C269.50,313.53 269.51,313.49 272.82,307.15 C281.00,291.46 295.53,283.97 315.29,285.26 C326.99,286.02 334.15,288.98 341.04,295.91 C344.09,298.99 347.64,303.75 348.93,306.50 C351.10,311.12 351.27,312.77 351.27,328.22 C351.27,346.80 350.88,348.53 344.85,356.70 C340.38,362.76 334.70,366.90 327.00,369.72 ZM 176.20 237.90 C161.76,240.90 147.67,236.26 141.11,226.35 C138.27,222.07 138.00,220.95 138.00,213.58 C138.01,206.42 138.33,205.02 140.78,201.32 C146.31,192.99 154.21,189.40 170.50,187.81 C185.51,186.35 186.50,186.14 190.14,183.69 C193.11,181.70 193.53,180.85 193.79,176.43 C194.05,172.12 193.73,171.09 191.46,168.97 C189.04,166.69 188.08,166.50 178.99,166.50 C167.55,166.50 164.60,167.92 162.32,174.50 C160.62,179.40 159.70,179.97 153.38,179.98 C144.70,180.01 142.00,179.12 142.00,176.24 C142.00,168.07 148.58,158.72 156.83,155.17 C163.95,152.11 175.03,150.65 185.32,151.42 C195.94,152.22 203.50,154.86 207.76,159.25 C213.51,165.18 214.00,168.27 214.00,198.41 C214.00,217.96 214.38,227.02 215.35,230.77 C216.09,233.63 216.47,236.20 216.18,236.48 C215.90,236.77 211.46,237.00 206.33,237.00 L 196.99 237.00 L 195.79 232.50 C195.13,230.02 194.30,228.00 193.95,228.00 C193.60,228.00 192.45,228.95 191.41,230.10 C188.42,233.40 181.99,236.70 176.20,237.90 ZM 189.90 346.06 C189.97,346.02 190.04,346.00 190.11,346.00 C190.60,346.00 191.00,344.42 191.00,342.50 L 191.00 317.07 L 180.34 316.78 C190.49,317.05 191.00,316.97 191.00,315.03 C191.00,313.92 190.55,313.00 190.00,313.00 C190.00,313.00 189.99,313.00 189.99,313.00 C190.60,312.96 191.07,302.07 191.23,283.75 L 191.50 254.50 L 211.00 253.93 L 211.00 274.96 C211.00,286.53 211.27,296.00 211.60,296.00 C211.92,296.00 214.21,294.22 216.68,292.05 C222.34,287.07 229.47,284.66 238.50,284.69 C253.92,284.74 263.24,293.02 265.98,309.11 C266.65,312.99 266.96,326.31 266.79,343.00 L 266.50 370.50 L 246.50 370.50 L 246.00 340.95 C245.56,314.94 245.29,311.08 243.74,308.72 C235.81,296.63 215.31,301.99 212.10,316.99 C211.47,319.90 211.00,332.62 211.00,346.59 L 211.00 371.07 L 201.25 370.79 L 191.50 370.50 L 191.22 358.25 C191.05,350.73 190.58,346.58 189.90,346.06 ZM 262.45 151.70 L 262.20 155.67 C261.69,163.59 262.82,167.92 265.58,168.61 C266.99,168.96 267.72,169.69 267.35,170.36 C267.31,170.42 267.29,170.47 267.26,170.52 C265.97,170.81 263.84,171.00 261.56,171.00 C252.87,171.00 245.52,174.78 242.00,181.05 C239.54,185.43 239.49,185.91 239.19,211.25 L 238.88 237.00 L 218.00 237.00 L 218.00 153.00 L 238.00 153.00 L 238.00 159.00 C238.00,162.30 238.22,165.00 238.48,165.00 C238.74,165.00 240.88,162.91 243.23,160.35 C248.95,154.12 253.34,151.99 262.45,151.70 ZM 305.26 355.03 C313.20,356.91 320.94,355.06 325.92,350.08 C332.45,343.55 334.89,328.73 331.39,316.93 C328.18,306.13 322.69,302.00 311.51,302.00 C303.50,302.00 299.46,303.58 295.29,308.32 C288.25,316.34 287.07,336.01 293.04,345.82 C295.39,349.68 301.20,354.06 305.26,355.03 ZM 168.48 224.11 C176.42,226.11 186.22,222.44 190.82,215.76 C193.24,212.24 193.82,210.23 194.16,204.25 C194.38,200.26 194.24,197.00 193.85,197.00 C193.45,197.00 191.94,197.45 190.49,198.00 C189.04,198.56 183.53,199.49 178.26,200.08 C166.52,201.39 160.58,203.91 159.07,208.23 C156.38,215.93 159.95,221.96 168.48,224.11 ZM 270.75 151.74 L 276.00 151.82 L 276.00 152.26 ZM 133.26 343.48 C131.57,339.63 131.01,335.15 131.03,327.50 C131.01,334.39 131.68,339.54 133.26,343.48 ZM 159.30 353.65 C156.45,354.84 153.15,355.21 149.88,354.89 C153.23,355.17 156.61,354.77 159.30,353.65 ZM 267.98 170.31 C268.01,170.29 268.03,170.27 268.05,170.25 C268.19,170.12 268.38,170.00 268.60,169.88 C268.56,169.92 268.53,169.96 268.50,170.00 C268.43,170.11 268.25,170.22 267.98,170.31 Z" fill="rgb(233,72,44)"/>
<path d="M 343.10 358.89 C343.71,358.19 344.29,357.46 344.85,356.70 C350.88,348.53 351.27,346.80 351.27,328.22 C351.27,313.63 351.12,311.35 349.27,307.25 C349.39,307.47 349.50,307.70 349.61,307.93 L 352.64 314.36 L 355.67 307.88 C363.04,292.14 375.83,284.61 395.00,284.74 C409.37,284.83 420.96,290.25 428.85,300.57 C432.40,305.22 437.00,317.98 437.00,323.20 C437.00,324.93 437.23,326.11 437.51,325.83 C438.34,325.00 438.93,306.13 438.96,279.21 L 439.00 253.93 L 458.50 254.50 L 458.76 311.94 C458.96,357.22 458.75,369.54 457.76,370.17 C455.79,371.42 440.22,371.17 439.42,369.87 C439.04,369.25 438.76,364.19 438.80,358.62 C438.84,353.06 438.61,344.47 438.28,339.54 L 437.68 330.58 L 436.03 338.54 C435.13,342.92 433.36,348.60 432.12,351.18 C429.14,357.31 420.45,365.43 413.25,368.80 C407.94,371.28 406.51,371.49 394.50,371.49 C381.97,371.50 381.26,371.39 374.80,368.33 C366.13,364.22 359.66,357.70 355.64,349.01 L 352.46 342.15 L 350.59 346.83 C348.77,351.35 346.24,355.41 343.10,358.89 ZM 74.50 237.64 C67.97,239.04 54.19,239.22 46.94,237.99 C39.55,236.74 32.20,233.05 28.51,228.74 C24.87,224.49 22.00,217.45 22.00,212.79 L 22.00 209.93 L 41.19 210.50 L 42.53 214.42 C43.27,216.57 45.04,219.50 46.46,220.92 C48.93,223.38 49.55,223.50 60.10,223.50 L 71.16 223.50 L 74.08 220.23 C79.11,214.61 77.22,208.35 69.67,205.57 C67.38,204.73 61.29,203.33 56.14,202.47 C37.64,199.37 30.50,195.70 25.90,186.93 C22.66,180.77 22.66,171.23 25.90,165.07 C31.48,154.43 42.03,150.39 62.12,151.19 C74.28,151.68 79.52,153.24 86.32,158.43 C90.15,161.35 91.00,160.99 91.00,156.44 C91.00,152.65 92.19,152.00 99.08,152.00 L 104.00 152.00 L 104.00 128.00 L 124.00 128.00 L 124.00 151.92 L 132.25 152.21 L 140.50 152.50 L 140.79 160.25 L 141.08 168.00 L 134.79 168.01 C131.33,168.02 127.49,168.30 126.25,168.63 L 124.00 169.23 L 124.00 192.48 C124.00,214.49 124.11,215.87 126.07,218.37 C127.74,220.48 128.99,221.00 132.46,221.00 L 136.78 221.00 L 137.15 213.71 C137.39,208.96 137.78,206.74 139.19,204.04 C138.17,206.24 138.01,208.41 138.00,213.58 C138.00,220.95 138.27,222.07 141.11,226.35 C143.23,229.55 146.14,232.21 149.59,234.23 C146.72,232.90 144.21,231.47 142.75,230.21 C141.12,228.79 141.00,228.98 141.00,232.93 L 141.00 237.17 L 129.75 236.84 C120.16,236.55 117.77,236.13 113.52,234.00 C104.75,229.60 104.58,228.94 104.00,196.50 L 103.50 168.50 L 94.50 168.50 L 95.18 179.00 L 76.22 179.00 L 75.60 175.68 C75.26,173.85 73.60,171.04 71.93,169.43 C69.17,166.79 68.11,166.47 60.93,166.15 C56.56,165.95 51.87,166.07 50.52,166.41 C43.80,168.09 41.63,176.83 46.84,181.21 C49.60,183.53 53.39,184.62 67.00,186.97 C78.27,188.92 85.99,191.95 90.66,196.25 C95.55,200.76 96.99,204.66 96.99,213.43 C97.01,225.94 89.05,234.51 74.50,237.64 ZM 386.00 354.28 C389.11,355.45 399.59,354.94 403.47,353.44 C408.19,351.61 413.28,345.40 414.89,339.50 C415.50,337.30 415.99,332.00 415.99,327.72 C416.01,309.38 404.73,298.59 389.20,302.07 C379.95,304.14 374.74,310.67 373.12,322.21 C371.02,337.21 376.43,350.68 386.00,354.28 ZM 309.70 285.13 C302.38,285.29 295.87,286.78 290.25,289.57 C293.52,287.90 297.05,286.68 300.79,285.95 C303.45,285.43 306.52,285.16 309.70,285.13 ZM 143.09 198.29 C147.24,193.45 152.74,190.69 161.70,189.02 C152.88,190.69 147.27,193.51 143.09,198.29 ZM 182.95 235.70 C186.44,234.16 189.57,232.13 191.41,230.10 C189.39,232.33 186.43,234.24 182.95,235.70 ZM 346.38 302.33 C344.80,300.11 342.83,297.72 341.04,295.91 C340.94,295.81 340.84,295.71 340.74,295.61 C342.80,297.63 344.72,299.91 346.38,302.33 ZM 329.49 288.06 C330.98,288.62 332.47,289.37 333.95,290.27 C332.22,289.24 330.40,288.38 328.43,287.68 C328.80,287.80 329.15,287.93 329.49,288.06 ZM 162.57 238.49 C164.31,238.71 166.10,238.82 167.91,238.80 C166.43,238.82 164.96,238.77 163.52,238.62 C163.22,238.59 162.90,238.55 162.57,238.49 Z" fill="rgb(244,168,41)"/>
<path d="M 0.00 250.00 L 0.00 0.00 L 250.00 0.00 L 500.00 0.00 L 500.00 250.00 L 500.00 500.00 L 250.00 500.00 L 0.00 500.00 L 0.00 250.00 ZM 446.01 416.90 C458.89,414.14 463.95,399.06 455.16,389.66 C449.79,383.93 450.41,384.00 408.01,384.00 C371.10,384.00 368.71,384.11 365.06,385.97 C359.60,388.76 356.73,393.83 356.79,400.58 C356.86,409.01 361.05,414.53 369.12,416.85 C373.92,418.23 439.62,418.28 446.01,416.90 ZM 94.89 370.04 C98.41,368.85 102.82,366.71 104.69,365.28 C108.44,362.43 112.98,355.41 113.03,352.41 C113.06,350.85 113.46,351.04 115.27,353.50 C126.31,368.50 140.22,374.52 157.99,372.00 C172.25,369.98 185.91,359.58 188.55,348.75 C189.96,342.95 190.95,346.47 191.22,358.25 L 191.50 370.50 L 201.25 370.79 L 211.00 371.07 L 211.00 346.59 C211.00,332.62 211.47,319.90 212.10,316.99 C215.31,301.99 235.81,296.63 243.74,308.72 C245.29,311.08 245.56,314.94 246.00,340.95 L 246.50 370.50 L 256.50 370.50 L 266.50 370.50 L 266.79 343.00 C266.96,326.31 266.65,312.99 265.98,309.11 C263.24,293.02 253.92,284.74 238.50,284.69 C229.47,284.66 222.34,287.07 216.68,292.05 C214.21,294.22 211.92,296.00 211.60,296.00 C211.27,296.00 211.00,286.53 211.00,274.96 L 211.00 253.93 L 201.25 254.21 L 191.50 254.50 L 191.23 283.75 C191.07,302.10 190.60,313.00 189.98,313.00 C189.44,313.00 189.00,312.05 189.00,310.89 C189.00,307.56 183.04,297.24 179.14,293.82 C170.82,286.52 156.29,282.83 143.88,284.88 C131.05,287.00 121.10,293.69 115.23,304.13 C112.24,309.46 111.01,310.21 110.98,306.75 C110.94,303.04 105.78,294.79 101.42,291.48 C95.08,286.66 87.22,284.62 75.00,284.60 C62.56,284.58 55.15,286.48 48.82,291.31 C42.21,296.35 40.04,300.99 40.02,310.14 C40.00,317.11 40.28,318.20 43.25,322.62 C47.28,328.61 55.53,333.16 65.54,334.91 C88.70,338.94 93.00,340.97 93.00,347.90 C93.00,354.89 88.04,358.00 76.90,358.00 C66.14,358.00 60.12,354.39 58.49,346.95 L 57.84 344.00 L 47.78 344.00 L 37.73 344.00 L 38.35 348.50 C40.02,360.71 49.55,369.30 64.40,371.98 C72.60,373.46 87.61,372.50 94.89,370.04 ZM 327.00 369.72 C337.88,365.74 346.26,357.60 350.59,346.83 L 352.46 342.15 L 355.64 349.01 C359.66,357.70 366.13,364.22 374.80,368.33 C381.26,371.39 381.97,371.50 394.50,371.49 C406.51,371.49 407.94,371.28 413.25,368.80 C420.45,365.43 429.14,357.31 432.12,351.18 C433.36,348.60 435.13,342.92 436.03,338.54 L 437.68 330.58 L 438.28 339.54 C438.61,344.47 438.84,353.06 438.80,358.62 C438.76,364.19 439.04,369.25 439.42,369.87 C440.22,371.17 455.79,371.42 457.76,370.17 C458.75,369.54 458.96,357.22 458.76,311.94 L 458.50 254.50 L 448.75 254.21 L 439.00 253.93 L 438.96 279.21 C438.93,306.13 438.34,325.00 437.51,325.83 C437.23,326.11 437.00,324.93 437.00,323.20 C437.00,317.98 432.40,305.22 428.85,300.57 C420.96,290.25 409.37,284.83 395.00,284.74 C375.83,284.61 363.04,292.14 355.67,307.88 L 352.64 314.36 L 349.61 307.93 C345.41,299.04 337.27,291.00 329.49,288.06 C321.98,285.22 309.32,284.29 300.79,285.95 C288.65,288.32 278.72,295.84 272.82,307.15 C269.51,313.49 269.50,313.53 269.50,328.00 C269.50,342.13 269.58,342.66 272.59,349.00 C281.79,368.38 305.74,377.50 327.00,369.72 ZM 415.00 250.08 C415.00,239.68 415.27,230.45 415.61,229.57 C416.12,228.25 416.82,228.51 419.76,231.09 C426.16,236.71 431.38,238.43 442.00,238.43 C449.70,238.44 452.43,238.01 456.42,236.20 C471.71,229.25 479.00,215.72 479.00,194.29 C479.00,183.99 477.50,176.88 473.80,169.61 C463.31,149.02 434.49,144.02 418.30,159.98 L 415.11 163.13 L 414.80 157.82 L 414.50 152.50 L 404.75 152.21 L 395.00 151.93 L 395.00 210.46 L 395.00 269.00 L 405.00 269.00 L 415.00 269.00 L 415.00 250.08 ZM 74.50 237.64 C89.05,234.51 97.01,225.94 96.99,213.43 C96.99,204.66 95.55,200.76 90.66,196.25 C85.99,191.95 78.27,188.92 67.00,186.97 C53.39,184.62 49.60,183.53 46.84,181.21 C41.63,176.83 43.80,168.09 50.52,166.41 C51.87,166.07 56.56,165.95 60.93,166.15 C68.11,166.47 69.17,166.79 71.93,169.43 C73.60,171.04 75.26,173.85 75.60,175.68 L 76.22 179.00 L 85.70 179.00 L 95.18 179.00 L 94.84 173.75 L 94.50 168.50 L 99.00 168.50 L 103.50 168.50 L 104.00 196.50 C104.58,228.94 104.75,229.60 113.52,234.00 C117.77,236.13 120.16,236.55 129.75,236.84 L 141.00 237.17 L 141.00 232.93 C141.00,228.98 141.12,228.79 142.75,230.21 C146.58,233.53 157.67,238.02 163.52,238.62 C174.00,239.69 186.06,236.01 191.41,230.10 C192.45,228.95 193.60,228.00 193.95,228.00 C194.30,228.00 195.13,230.02 195.79,232.50 L 196.99 237.00 L 206.33 237.00 C211.46,237.00 215.90,236.77 216.18,236.48 C216.47,236.20 216.09,233.63 215.35,230.77 C214.38,227.02 214.00,217.96 214.00,198.41 C214.00,168.27 213.51,165.18 207.76,159.25 C203.50,154.86 195.94,152.22 185.32,151.42 C175.03,150.65 163.95,152.11 156.83,155.17 C148.58,158.72 142.00,168.07 142.00,176.24 C142.00,179.12 144.70,180.01 153.38,179.98 C159.70,179.97 160.62,179.40 162.32,174.50 C164.60,167.92 167.55,166.50 178.99,166.50 C188.08,166.50 189.04,166.69 191.46,168.97 C193.73,171.09 194.05,172.12 193.79,176.43 C193.53,180.85 193.11,181.70 190.14,183.69 C186.51,186.13 185.54,186.34 170.50,187.82 C153.84,189.46 146.24,192.95 140.73,201.46 C138.02,205.65 137.46,207.56 137.15,213.71 L 136.78 221.00 L 132.46 221.00 C128.99,221.00 127.74,220.48 126.07,218.37 C124.11,215.87 124.00,214.49 124.00,192.48 L 124.00 169.23 L 126.25 168.63 C127.49,168.30 131.33,168.02 134.79,168.01 L 141.08 168.00 L 140.79 160.25 L 140.50 152.50 L 132.25 152.21 L 124.00 151.92 L 124.00 139.96 L 124.00 128.00 L 114.00 128.00 L 104.00 128.00 L 104.00 140.00 L 104.00 152.00 L 99.08 152.00 C92.19,152.00 91.00,152.65 91.00,156.44 C91.00,160.99 90.15,161.35 86.32,158.43 C79.52,153.24 74.28,151.68 62.12,151.19 C42.03,150.39 31.48,154.43 25.90,165.07 C22.66,171.23 22.66,180.77 25.90,186.93 C30.50,195.70 37.64,199.37 56.14,202.47 C61.29,203.33 67.38,204.73 69.67,205.57 C77.22,208.35 79.11,214.61 74.08,220.23 L 71.16 223.50 L 60.10 223.50 C49.55,223.50 48.93,223.38 46.46,220.92 C45.04,219.50 43.27,216.57 42.53,214.42 L 41.19 210.50 L 31.60 210.21 L 22.00 209.93 L 22.00 212.79 C22.00,217.45 24.87,224.49 28.51,228.74 C32.20,233.05 39.55,236.74 46.94,237.99 C54.19,239.22 67.97,239.04 74.50,237.64 ZM 356.41 235.67 C359.21,234.39 363.18,231.75 365.23,229.82 C367.28,227.88 369.20,226.53 369.48,226.82 C369.77,227.10 370.00,229.52 370.00,232.20 L 370.00 237.07 L 379.75 236.79 L 389.50 236.50 L 389.50 195.00 L 389.50 153.50 L 379.32 153.22 L 369.14 152.93 L 368.82 180.22 C368.47,210.44 368.39,210.82 361.63,216.75 C355.74,221.92 344.82,222.25 339.09,217.42 C334.64,213.68 334.00,208.92 334.00,179.70 L 334.00 153.29 L 315.76 152.57 C303.59,152.09 297.28,151.46 296.78,150.68 C296.37,150.03 296.02,144.66 296.02,138.75 L 296.00 128.00 L 286.00 128.00 L 276.00 128.00 L 276.00 139.91 L 276.00 151.82 L 266.25 151.68 C254.46,151.51 249.69,153.31 243.23,160.35 C240.88,162.91 238.74,165.00 238.48,165.00 C238.22,165.00 238.00,162.30 238.00,159.00 L 238.00 153.00 L 228.00 153.00 L 218.00 153.00 L 218.00 195.00 L 218.00 237.00 L 228.44 237.00 L 238.88 237.00 L 239.19 211.25 C239.49,185.91 239.54,185.43 242.00,181.05 C245.52,174.78 252.87,171.00 261.56,171.00 C265.03,171.00 268.16,170.55 268.50,170.00 C268.84,169.45 270.64,169.00 272.50,169.00 L 275.88 169.00 L 276.19 196.75 C276.54,228.44 276.76,229.35 285.05,233.99 C288.94,236.16 290.99,236.52 301.25,236.84 L 313.00 237.21 L 313.00 229.22 L 313.00 221.23 L 306.49 220.82 C296.22,220.16 296.56,221.08 296.16,193.04 L 295.82 169.15 L 304.50 168.83 C309.27,168.65 313.36,168.69 313.59,168.92 C313.81,169.15 314.00,179.41 314.00,191.72 C314.00,215.73 314.72,221.03 318.79,227.24 C321.80,231.81 329.03,236.75 333.89,237.56 C335.88,237.89 337.95,238.34 338.50,238.56 C340.94,239.54 351.78,237.79 356.41,235.67 ZM 380.00 410.57 C380.00,409.67 380.85,409.00 382.00,409.00 C384.37,409.00 384.57,406.62 382.50,403.00 C380.84,400.10 380.57,397.00 381.97,397.00 C382.51,397.00 383.71,398.46 384.64,400.25 L 386.33 403.50 L 387.67 400.25 C389.22,396.47 392.56,395.59 391.46,399.25 C391.08,400.49 389.59,403.75 388.14,406.50 C386.08,410.40 384.90,411.57 382.75,411.82 C380.79,412.04 380.00,411.69 380.00,410.57 ZM 414.53 410.04 C414.16,409.45 412.34,408.33 410.47,407.55 C405.04,405.28 404.33,398.31 409.16,394.72 C415.30,390.16 423.81,396.22 420.95,403.13 C420.28,404.73 419.01,406.47 418.12,406.99 C416.83,407.75 417.07,407.95 419.33,407.97 C421.14,407.99 422.02,408.45 421.76,409.25 C421.24,410.83 415.41,411.47 414.53,410.04 ZM 416.80 403.80 C418.46,402.14 418.30,398.50 416.51,397.01 C412.86,393.98 407.77,398.84 410.09,403.16 C411.20,405.24 415.00,405.60 416.80,403.80 ZM 367.00 400.00 C367.00,393.56 367.29,392.00 368.50,392.00 C369.43,392.00 370.00,392.94 370.00,394.50 C370.00,396.60 370.47,397.00 372.93,397.00 C376.43,397.00 379.00,399.29 379.00,402.42 C379.00,405.82 375.94,408.00 371.17,408.00 L 367.00 408.00 L 367.00 400.00 ZM 375.50 402.50 C375.50,399.97 371.53,399.18 370.62,401.54 C369.73,403.86 370.82,405.17 373.34,404.81 C374.73,404.61 375.50,403.79 375.50,402.50 ZM 400.00 400.50 C400.00,394.82 400.33,393.00 401.37,393.00 C402.24,393.00 402.92,394.56 403.23,397.31 C403.89,403.22 403.07,408.00 401.39,408.00 C400.33,408.00 400.00,406.23 400.00,400.50 ZM 425.16 406.76 C423.42,405.02 423.65,397.00 425.44,397.00 C426.38,397.00 426.99,398.30 427.19,400.75 C427.44,403.73 427.91,404.50 429.50,404.50 C431.09,404.50 431.56,403.73 431.81,400.75 C432.01,398.30 432.62,397.00 433.56,397.00 C434.63,397.00 435.00,398.36 435.00,402.37 L 435.00 407.75 L 430.66 407.83 C428.27,407.88 425.80,407.40 425.16,406.76 ZM 438.70 406.22 C436.49,403.78 436.54,400.73 438.83,398.65 C441.29,396.42 445.30,396.57 447.47,398.96 C449.93,401.69 448.75,403.97 444.78,404.15 C441.67,404.29 441.65,404.32 444.31,404.72 C447.92,405.27 447.27,407.41 443.37,407.80 C441.44,407.99 439.80,407.44 438.70,406.22 ZM 141.97 352.75 C133.94,348.69 131.00,341.91 131.03,327.50 C131.05,315.14 134.67,307.32 142.20,303.40 C145.69,301.59 156.32,301.59 159.80,303.41 C163.54,305.37 167.57,309.92 168.71,313.50 L 169.66 316.50 L 180.33 316.78 L 191.00 317.07 L 191.00 328.03 L 191.00 339.00 L 180.58 339.00 L 170.16 339.00 L 169.48 342.07 C168.61,346.04 163.43,351.92 159.30,353.65 C154.36,355.71 147.08,355.33 141.97,352.75 ZM 106.00 329.23 C99.89,324.45 90.16,321.34 75.50,319.47 C69.00,318.64 62.47,315.75 61.03,313.05 C60.40,311.88 60.02,309.27 60.19,307.26 C60.65,301.84 65.13,299.49 75.00,299.52 C85.95,299.55 89.52,301.95 92.40,311.25 C92.86,312.75 94.24,313.00 102.00,313.00 L 111.07 313.00 L 110.41 318.25 C110.04,321.14 109.46,325.23 109.12,327.34 L 108.50 331.18 L 106.00 329.23 ZM 305.26 355.03 C301.20,354.06 295.39,349.68 293.04,345.82 C287.07,336.01 288.25,316.34 295.29,308.32 C299.46,303.58 303.50,302.00 311.51,302.00 C322.69,302.00 328.18,306.13 331.39,316.93 C334.89,328.73 332.45,343.55 325.92,350.08 C320.94,355.06 313.20,356.91 305.26,355.03 ZM 386.00 354.28 C376.43,350.68 371.02,337.21 373.12,322.21 C374.74,310.67 379.95,304.14 389.20,302.07 C404.73,298.59 416.01,309.38 415.99,327.72 C415.99,332.00 415.50,337.30 414.89,339.50 C413.28,345.40 408.19,351.61 403.47,353.44 C399.59,354.94 389.11,355.45 386.00,354.28 ZM 431.50 221.12 C420.35,218.24 414.22,207.25 415.26,192.03 C416.37,175.78 423.50,168.00 437.26,168.00 C445.66,168.00 451.62,171.55 455.11,178.64 C457.17,182.83 457.50,184.94 457.50,194.00 C457.50,203.50 457.23,205.05 454.68,210.25 C452.57,214.55 450.78,216.63 447.59,218.50 C442.93,221.23 436.18,222.33 431.50,221.12 ZM 168.48 224.11 C159.95,221.96 156.38,215.93 159.07,208.23 C160.58,203.91 166.52,201.39 178.26,200.08 C183.53,199.49 189.04,198.56 190.49,198.00 C191.94,197.45 193.45,197.00 193.85,197.00 C194.24,197.00 194.38,200.26 194.16,204.25 C193.82,210.23 193.24,212.24 190.82,215.76 C186.22,222.44 176.42,226.11 168.48,224.11 Z" fill="rgb(254,254,253)"/>
</g>
</svg>